<svg width="250" height="67" viewBox="0 0 250 67" fill="none" xmlns="http://www.w3.org/2000/svg">
<g clip-path="url(#clip0_1_7)">
<path d="M99.272 44.32C97.288 44.32 95.624 44.032 94.28 43.456C92.9573 42.8587 91.944 42.0907 91.24 41.152C90.5573 40.192 90.1947 39.1893 90.152 38.144C90.152 37.952 90.216 37.792 90.344 37.664C90.472 37.536 90.632 37.472 90.824 37.472H93.672C93.9493 37.472 94.152 37.536 94.28 37.664C94.4293 37.7707 94.5573 37.9093 94.664 38.08C94.792 38.4853 95.0373 38.8907 95.4 39.296C95.7627 39.68 96.2533 40 96.872 40.256C97.512 40.512 98.312 40.64 99.272 40.64C100.808 40.64 101.949 40.384 102.696 39.872C103.464 39.36 103.848 38.6667 103.848 37.792C103.848 37.1733 103.645 36.6827 103.24 36.32C102.835 35.936 102.205 35.5947 101.352 35.296C100.52 34.976 99.4107 34.6453 98.024 34.304C96.424 33.92 95.08 33.4613 93.992 32.928C92.9253 32.3733 92.1147 31.68 91.56 30.848C91.0267 30.016 90.76 28.96 90.76 27.68C90.76 26.4427 91.0907 25.344 91.752 24.384C92.4347 23.424 93.3947 22.6667 94.632 22.112C95.8907 21.5573 97.384 21.28 99.112 21.28C100.499 21.28 101.725 21.472 102.792 21.856C103.859 22.2187 104.744 22.7093 105.448 23.328C106.152 23.9253 106.685 24.576 107.048 25.28C107.432 25.9627 107.635 26.6347 107.656 27.296C107.656 27.4667 107.592 27.6267 107.464 27.776C107.357 27.904 107.197 27.968 106.984 27.968H104.008C103.837 27.968 103.667 27.9253 103.496 27.84C103.325 27.7547 103.187 27.5947 103.08 27.36C102.952 26.6987 102.536 26.1333 101.832 25.664C101.128 25.1947 100.221 24.96 99.112 24.96C97.96 24.96 97.032 25.1733 96.328 25.6C95.624 26.0267 95.272 26.688 95.272 27.584C95.272 28.1813 95.4427 28.6827 95.784 29.088C96.1467 29.472 96.712 29.8133 97.48 30.112C98.2693 30.4107 99.304 30.7307 100.584 31.072C102.397 31.4773 103.88 31.9467 105.032 32.48C106.184 33.0133 107.027 33.696 107.56 34.528C108.093 35.3387 108.36 36.3733 108.36 37.632C108.36 39.04 107.976 40.2453 107.208 41.248C106.461 42.2293 105.405 42.9867 104.04 43.52C102.675 44.0533 101.085 44.32 99.272 44.32ZM116.187 44C115.889 44 115.665 43.9253 115.515 43.776C115.366 43.6267 115.238 43.4347 115.131 43.2L110.555 28.352C110.534 28.2453 110.523 28.1493 110.523 28.064C110.523 27.872 110.587 27.712 110.715 27.584C110.865 27.4347 111.025 27.36 111.195 27.36H113.563C113.819 27.36 114.022 27.4347 114.171 27.584C114.321 27.712 114.406 27.84 114.427 27.968L117.563 38.56L120.891 28.064C120.934 27.9147 121.03 27.7653 121.179 27.616C121.329 27.4453 121.553 27.36 121.851 27.36H123.451C123.75 27.36 123.974 27.4453 124.123 27.616C124.273 27.7653 124.369 27.9147 124.411 28.064L127.739 38.56L130.875 27.968C130.897 27.84 130.971 27.712 131.099 27.584C131.249 27.4347 131.451 27.36 131.707 27.36H134.075C134.267 27.36 134.427 27.4347 134.555 27.584C134.705 27.712 134.779 27.872 134.779 28.064C134.779 28.1493 134.758 28.2453 134.715 28.352L130.139 43.2C130.075 43.4347 129.958 43.6267 129.787 43.776C129.638 43.9253 129.414 44 129.115 44H127.035C126.758 44 126.523 43.9253 126.331 43.776C126.161 43.6267 126.043 43.4347 125.979 43.2L122.651 33.088L119.323 43.2C119.238 43.4347 119.11 43.6267 118.939 43.776C118.79 43.9253 118.555 44 118.235 44H116.187ZM138.661 44C138.448 44 138.267 43.9253 138.117 43.776C137.968 43.6267 137.893 43.4453 137.893 43.232V28.128C137.893 27.9147 137.968 27.7333 138.117 27.584C138.267 27.4347 138.448 27.36 138.661 27.36H141.317C141.552 27.36 141.733 27.4347 141.861 27.584C142.011 27.7333 142.085 27.9147 142.085 28.128V43.232C142.085 43.4453 142.011 43.6267 141.861 43.776C141.733 43.9253 141.552 44 141.317 44H138.661ZM138.533 24.608C138.32 24.608 138.139 24.5333 137.989 24.384C137.84 24.2347 137.765 24.0533 137.765 23.84V21.536C137.765 21.3227 137.84 21.1413 137.989 20.992C138.139 20.8427 138.32 20.768 138.533 20.768H141.445C141.68 20.768 141.872 20.8427 142.021 20.992C142.171 21.1413 142.245 21.3227 142.245 21.536V23.84C142.245 24.0533 142.171 24.2347 142.021 24.384C141.872 24.5333 141.68 24.608 141.445 24.608H138.533ZM148.891 44C148.677 44 148.496 43.9253 148.347 43.776C148.197 43.6267 148.123 43.4453 148.123 43.232V30.752H145.531C145.317 30.752 145.136 30.6773 144.987 30.528C144.837 30.3787 144.763 30.1867 144.763 29.952V28.128C144.763 27.9147 144.837 27.7333 144.987 27.584C145.136 27.4347 145.317 27.36 145.531 27.36H148.123V26.048C148.123 24.768 148.357 23.712 148.827 22.88C149.296 22.0267 149.989 21.3867 150.907 20.96C151.824 20.5333 152.987 20.32 154.395 20.32H156.571C156.805 20.32 156.987 20.3947 157.115 20.544C157.264 20.6933 157.339 20.8747 157.339 21.088V22.912C157.339 23.1467 157.264 23.3387 157.115 23.488C156.987 23.6373 156.805 23.712 156.571 23.712H154.523C153.669 23.712 153.083 23.9253 152.763 24.352C152.443 24.7787 152.283 25.3973 152.283 26.208V27.36H156.251C156.485 27.36 156.667 27.4347 156.795 27.584C156.944 27.7333 157.019 27.9147 157.019 28.128V29.952C157.019 30.1867 156.944 30.3787 156.795 30.528C156.667 30.6773 156.485 30.752 156.251 30.752H152.283V43.232C152.283 43.4453 152.208 43.6267 152.059 43.776C151.909 43.9253 151.728 44 151.515 44H148.891ZM167.101 44C165.821 44 164.743 43.776 163.869 43.328C162.994 42.88 162.343 42.2187 161.917 41.344C161.49 40.448 161.277 39.3387 161.277 38.016V30.752H158.749C158.535 30.752 158.354 30.6773 158.205 30.528C158.055 30.3787 157.981 30.1867 157.981 29.952V28.128C157.981 27.9147 158.055 27.7333 158.205 27.584C158.354 27.4347 158.535 27.36 158.749 27.36H161.277V22.048C161.277 21.8347 161.341 21.6533 161.469 21.504C161.618 21.3547 161.81 21.28 162.045 21.28H164.637C164.85 21.28 165.031 21.3547 165.181 21.504C165.33 21.6533 165.405 21.8347 165.405 22.048V27.36H169.405C169.618 27.36 169.799 27.4347 169.949 27.584C170.098 27.7333 170.173 27.9147 170.173 28.128V29.952C170.173 30.1867 170.098 30.3787 169.949 30.528C169.799 30.6773 169.618 30.752 169.405 30.752H165.405V37.696C165.405 38.5707 165.554 39.2533 165.853 39.744C166.173 40.2347 166.717 40.48 167.485 40.48H169.693C169.906 40.48 170.087 40.5547 170.237 40.704C170.386 40.8533 170.461 41.0347 170.461 41.248V43.232C170.461 43.4453 170.386 43.6267 170.237 43.776C170.087 43.9253 169.906 44 169.693 44H167.101Z" fill="white"/>
<rect x="178" y="18.0694" width="67.6309" height="36.3109" rx="6" transform="rotate(-6 178 18.0694)" fill="#EA580C"/>
<path d="M196.272 44.32C194.288 44.32 192.624 44.032 191.28 43.456C189.957 42.8587 188.944 42.0907 188.24 41.152C187.557 40.192 187.195 39.1894 187.152 38.144C187.152 37.952 187.216 37.792 187.344 37.664C187.472 37.536 187.632 37.472 187.824 37.472H190.672C190.949 37.472 191.152 37.536 191.28 37.664C191.429 37.7707 191.557 37.9094 191.664 38.08C191.792 38.4854 192.037 38.8907 192.4 39.296C192.763 39.68 193.253 40 193.872 40.256C194.512 40.512 195.312 40.64 196.272 40.64C197.808 40.64 198.949 40.384 199.696 39.872C200.464 39.36 200.848 38.6667 200.848 37.792C200.848 37.1734 200.645 36.6827 200.24 36.32C199.835 35.936 199.205 35.5947 198.352 35.296C197.52 34.976 196.411 34.6454 195.024 34.304C193.424 33.92 192.08 33.4614 190.992 32.928C189.925 32.3734 189.115 31.68 188.56 30.848C188.027 30.016 187.76 28.96 187.76 27.68C187.76 26.4427 188.091 25.344 188.752 24.384C189.435 23.424 190.395 22.6667 191.632 22.112C192.891 21.5574 194.384 21.28 196.112 21.28C197.499 21.28 198.725 21.472 199.792 21.856C200.859 22.2187 201.744 22.7094 202.448 23.328C203.152 23.9254 203.685 24.576 204.048 25.28C204.432 25.9627 204.635 26.6347 204.656 27.296C204.656 27.4667 204.592 27.6267 204.464 27.776C204.357 27.904 204.197 27.968 203.984 27.968H201.008C200.837 27.968 200.667 27.9254 200.496 27.84C200.325 27.7547 200.187 27.5947 200.08 27.36C199.952 26.6987 199.536 26.1334 198.832 25.664C198.128 25.1947 197.221 24.96 196.112 24.96C194.96 24.96 194.032 25.1734 193.328 25.6C192.624 26.0267 192.272 26.688 192.272 27.584C192.272 28.1814 192.443 28.6827 192.784 29.088C193.147 29.472 193.712 29.8134 194.48 30.112C195.269 30.4107 196.304 30.7307 197.584 31.072C199.397 31.4774 200.88 31.9467 202.032 32.48C203.184 33.0134 204.027 33.696 204.56 34.528C205.093 35.3387 205.36 36.3734 205.36 37.632C205.36 39.04 204.976 40.2454 204.208 41.248C203.461 42.2294 202.405 42.9867 201.04 43.52C199.675 44.0534 198.085 44.32 196.272 44.32ZM213.475 44.32C212.366 44.32 211.363 44.1067 210.467 43.68C209.571 43.232 208.857 42.6454 208.323 41.92C207.811 41.1734 207.555 40.3414 207.555 39.424C207.555 37.9307 208.163 36.7467 209.379 35.872C210.595 34.976 212.185 34.3787 214.147 34.08L218.531 33.44V32.768C218.531 31.872 218.307 31.1787 217.859 30.688C217.411 30.1974 216.643 29.952 215.555 29.952C214.787 29.952 214.158 30.112 213.667 30.432C213.198 30.7307 212.846 31.136 212.611 31.648C212.441 31.9254 212.195 32.064 211.875 32.064H209.347C209.113 32.064 208.931 32 208.803 31.872C208.697 31.744 208.643 31.5734 208.643 31.36C208.665 31.0187 208.803 30.6027 209.059 30.112C209.337 29.6214 209.742 29.152 210.275 28.704C210.83 28.2347 211.545 27.84 212.419 27.52C213.294 27.2 214.35 27.04 215.587 27.04C216.931 27.04 218.062 27.2107 218.979 27.552C219.918 27.872 220.665 28.3094 221.219 28.864C221.774 29.4187 222.179 30.0694 222.435 30.816C222.691 31.5627 222.819 32.352 222.819 33.184V43.232C222.819 43.4454 222.745 43.6267 222.595 43.776C222.446 43.9254 222.265 44 222.051 44H219.459C219.225 44 219.033 43.9254 218.883 43.776C218.755 43.6267 218.691 43.4454 218.691 43.232V41.984C218.414 42.368 218.041 42.7414 217.571 43.104C217.102 43.4667 216.526 43.7654 215.843 44C215.182 44.2134 214.393 44.32 213.475 44.32ZM214.563 41.28C215.31 41.28 215.982 41.12 216.579 40.8C217.198 40.48 217.678 39.9894 218.019 39.328C218.382 38.6454 218.563 37.792 218.563 36.768V36.096L215.363 36.608C214.105 36.8 213.166 37.1094 212.547 37.536C211.929 37.9627 211.619 38.4854 211.619 39.104C211.619 39.5734 211.758 39.9787 212.035 40.32C212.334 40.64 212.707 40.8854 213.155 41.056C213.603 41.2054 214.073 41.28 214.563 41.28ZM227.693 44C227.479 44 227.298 43.9254 227.149 43.776C226.999 43.6267 226.924 43.4454 226.924 43.232V28.128C226.924 27.9147 226.999 27.7334 227.149 27.584C227.298 27.4347 227.479 27.36 227.693 27.36H230.349C230.583 27.36 230.765 27.4347 230.893 27.584C231.042 27.7334 231.117 27.9147 231.117 28.128V43.232C231.117 43.4454 231.042 43.6267 230.893 43.776C230.765 43.9254 230.583 44 230.349 44H227.693ZM227.565 24.608C227.351 24.608 227.17 24.5334 227.021 24.384C226.871 24.2347 226.797 24.0534 226.797 23.84V21.536C226.797 21.3227 226.871 21.1414 227.021 20.992C227.17 20.8427 227.351 20.768 227.565 20.768H230.477C230.711 20.768 230.903 20.8427 231.053 20.992C231.202 21.1414 231.277 21.3227 231.277 21.536V23.84C231.277 24.0534 231.202 24.2347 231.053 24.384C230.903 24.5334 230.711 24.608 230.477 24.608H227.565ZM236.162 44C235.949 44 235.767 43.9254 235.618 43.776C235.469 43.6267 235.394 43.4454 235.394 43.232V22.048C235.394 21.8347 235.469 21.6534 235.618 21.504C235.767 21.3547 235.949 21.28 236.162 21.28H238.818C239.031 21.28 239.213 21.3547 239.362 21.504C239.511 21.6534 239.586 21.8347 239.586 22.048V43.232C239.586 43.4454 239.511 43.6267 239.362 43.776C239.213 43.9254 239.031 44 238.818 44H236.162Z" fill="white"/>
<path d="M5.57812 40.9414C10.6094 45.0156 19.8516 48.6797 27.3984 48.6797C33.6055 48.6797 37.2422 47.1211 40.7969 45.1523C28.4102 35.1992 19.0586 24.6172 11.6484 13.8711C19.3867 20.7891 27.6719 27.0781 36.5586 32.6836C29.9688 25.3555 23.9805 18.3555 18.9492 10.6172C25.2109 17.3164 40.9336 30.3867 49.1094 35.1172C49.875 33.2578 50.8047 29.5391 50.8047 26.1211C50.8047 16.7695 46.5938 10.043 43.4492 5.61328C58.5156 14.6641 63.082 28.7461 63.082 36.8398C63.082 38.6172 63 41.6523 62.0156 44.3867C66.4727 49.9648 67.2656 55.0781 67.2656 57.7578C67.2656 58.6875 67.1289 59.4531 66.9922 60.0547C66.7461 60.875 66.3633 60.6016 66.1445 60.1641C65.3789 58.8242 63.3828 55.4336 58.3242 55.4336C52.2266 55.4336 49.3555 60.3008 38.8828 60.3008C22.4492 60.3008 10.2539 48.5703 5.57812 40.9414Z" fill="white"/>
</g>
<defs>
<clipPath id="clip0_1_7">
<rect width="249.056" height="67" fill="white"/>
</clipPath>
</defs>
</svg>
